<svg width="40" height="40" viewBox="0 0 40 40" fill="none" xmlns="http://www.w3.org/2000/svg">
<path d="M13 26C20.1797 26 26 20.1797 26 13C26 5.8203 20.1797 0 13 0C5.8203 0 0 5.8203 0 13C0 20.1797 5.8203 26 13 26Z" fill="#F3BA2F"/>
<path d="M9.5044 11.5636L13 8.068L16.4978 11.565L18.5318 9.53104L13 4L7.4704 9.5296L9.5044 11.5636ZM4 13L6.034 10.966L8.068 13L6.034 15.034L4 13ZM9.5044 14.4364L13 17.932L16.497 14.435L18.5325 16.4675L18.5318 16.469L13 22L7.4704 16.4704L7.46752 16.4675L9.5044 14.4364ZM17.932 13.0007L19.966 10.9667L22 13.0007L19.966 15.0347L17.932 13.0007Z" fill="white"/>
<path d="M15.0628 12.9993H15.0635L13 10.9351L11.4743 12.46L11.2994 12.635L10.9379 12.9964L10.9351 12.9993L10.9379 13.0022L13 15.065L15.0643 13.0007L15.065 12.9993H15.0628Z" fill="white"/>
<path d="M27 39.5C33.9036 39.5 39.5 33.9036 39.5 27C39.5 20.0964 33.9036 14.5 27 14.5C20.0964 14.5 14.5 20.0964 14.5 27C14.5 33.9036 20.0964 39.5 27 39.5Z" fill="white" stroke="#FFEEEE"/>
<path d="M25.921 20.2033C26.3904 19.9322 26.9688 19.9322 27.4383 20.2033L32.6006 23.1837C33.0701 23.4548 33.3593 23.9557 33.3593 24.4978V30.4587C33.3593 31.0008 33.0701 31.5017 32.6006 31.7727L27.4383 34.7532C26.9688 35.0242 26.3904 35.0242 25.921 34.7532L20.7587 31.7727C20.2892 31.5017 20 31.0008 20 30.4587V24.4978C20 23.9557 20.2892 23.4548 20.7587 23.1837L25.921 20.2033Z" fill="#FF4B56"/>
<path d="M26.6533 24.5195L25.9146 26.7976L23.5186 26.7997L25.4558 28.2074L24.7171 30.4876C25.2163 30.1219 26.1204 29.4665 26.6543 29.0798L28.5936 30.4866L27.8529 28.2085L29.7901 26.7987H27.3961L26.6533 24.5195ZM26.6533 26.0794L26.8889 26.7976L26.4198 26.7987L26.6533 26.0794ZM25.7572 27.2796L25.6132 27.7265L25.001 27.2816L25.7572 27.2796ZM26.2634 27.2796H27.0453L27.287 28.0235L26.6543 28.4839L26.0216 28.0235L26.2634 27.2796ZM27.5514 27.2796H28.3066L27.6965 27.7265L27.5514 27.2796ZM25.8652 28.5065L26.2459 28.7808L25.6338 29.2258L25.8652 28.5065ZM27.4455 28.5065L27.6769 29.2258L27.0658 28.7818V28.7808L27.4455 28.5065Z" fill="#5B8150"/>
</svg>
